<svg xmlns="http://www.w3.org/2000/svg" viewBox="0 0 671.13 204"><defs><style>.cls-1{fill:#e0040b;}.cls-2{fill:#fff;}.cls-3{fill:#1f140f;}</style></defs><g id="Layer_2" data-name="Layer 2"><g id="Capa_1" data-name="Capa 1"><g id="_pixel-hearts_" data-name="&lt;pixel-hearts&gt;"><g id="_heart2_" data-name="&lt;heart2&gt;"><polygon id="_second-half_" data-name="&lt;second-half&gt;" class="cls-1" points="166.91 37.09 166.91 18.55 148.36 18.55 129.82 18.55 129.82 37.09 111.27 37.09 111.27 55.64 111.27 74.18 111.27 92.73 111.27 111.27 111.27 129.82 111.27 148.36 111.27 166.91 129.82 166.91 129.82 148.36 148.36 148.36 148.36 129.82 166.91 129.82 166.91 111.27 185.46 111.27 185.46 92.73 185.46 74.18 185.46 55.64 185.46 37.09 166.91 37.09"/><g id="_first-half_" data-name="&lt;first-half&gt;"><polygon class="cls-2" points="37.09 37.09 37.09 55.64 37.09 74.18 55.64 74.18 55.64 55.64 55.64 37.09 37.09 37.09"/><polygon class="cls-1" points="92.73 55.64 92.73 37.09 74.18 37.09 74.18 18.55 55.64 18.55 37.09 18.55 37.09 37.09 55.64 37.09 55.64 55.64 55.64 74.18 37.09 74.18 37.09 55.64 37.09 37.09 18.55 37.09 18.55 55.64 18.55 74.18 18.55 92.73 18.55 111.27 37.09 111.27 37.09 129.82 55.64 129.82 55.64 148.36 74.18 148.36 74.18 166.91 92.73 166.91 92.73 185.46 111.27 185.46 111.27 166.91 111.27 148.36 111.27 129.82 111.27 111.27 111.27 92.73 111.27 74.18 111.27 55.64 92.73 55.64"/></g><g id="_outline_" data-name="&lt;outline&gt;"><polygon class="cls-3" points="74.18 18.55 74.18 0 55.64 0 37.09 0 37.09 18.55 55.64 18.55 74.18 18.55"/><polygon class="cls-3" points="166.91 18.55 166.91 0 148.36 0 129.82 0 129.82 18.55 148.36 18.55 166.91 18.55"/><rect class="cls-3" x="18.55" y="18.55" width="18.55" height="18.55"/><rect class="cls-3" x="74.18" y="18.55" width="18.55" height="18.55"/><rect class="cls-3" x="111.27" y="18.55" width="18.55" height="18.55"/><rect class="cls-3" x="166.91" y="18.55" width="18.55" height="18.55"/><rect class="cls-3" x="92.73" y="37.09" width="18.55" height="18.55"/><polygon class="cls-3" points="185.46 37.09 185.46 55.64 185.46 74.18 185.46 92.73 185.46 111.27 204 111.27 204 92.73 204 74.18 204 55.64 204 37.09 185.46 37.09"/><polygon class="cls-3" points="18.55 74.18 18.55 55.64 18.55 37.09 0 37.09 0 55.64 0 74.18 0 92.73 0 111.27 18.55 111.27 18.55 92.73 18.55 74.18"/><rect class="cls-3" x="18.55" y="111.27" width="18.55" height="18.55"/><rect class="cls-3" x="166.91" y="111.27" width="18.55" height="18.55"/><rect class="cls-3" x="37.09" y="129.82" width="18.55" height="18.55"/><rect class="cls-3" x="148.36" y="129.82" width="18.55" height="18.55"/><rect class="cls-3" x="55.64" y="148.36" width="18.55" height="18.55"/><rect class="cls-3" x="129.82" y="148.36" width="18.55" height="18.55"/><rect class="cls-3" x="74.18" y="166.91" width="18.55" height="18.55"/><rect class="cls-3" x="111.27" y="166.91" width="18.55" height="18.55"/><rect class="cls-3" x="92.73" y="185.45" width="18.55" height="18.55"/></g></g><g id="_heart1_" data-name="&lt;heart1&gt;"><polygon id="_second-half_2" data-name="&lt;second-half&gt;" class="cls-1" points="400.48 37.09 400.48 18.55 381.93 18.55 363.38 18.55 363.38 37.09 344.84 37.09 344.84 55.64 344.84 74.18 344.84 92.73 344.84 111.27 344.84 129.82 344.84 148.36 344.84 166.91 363.38 166.91 363.38 148.36 381.93 148.36 381.93 129.82 400.48 129.82 400.48 111.27 419.02 111.27 419.02 92.73 419.02 74.18 419.02 55.64 419.02 37.09 400.48 37.09"/><g id="_first-half_2" data-name="&lt;first-half&gt;"><polygon class="cls-2" points="270.66 37.09 270.66 55.64 270.66 74.18 289.2 74.18 289.2 55.64 289.2 37.09 270.66 37.09"/><polygon class="cls-1" points="326.29 55.64 326.29 37.09 307.75 37.09 307.75 18.55 289.2 18.55 270.66 18.55 270.66 37.09 289.2 37.09 289.2 55.64 289.2 74.18 270.66 74.18 270.66 55.64 270.66 37.09 252.11 37.09 252.11 55.64 252.11 74.18 252.11 92.73 252.11 111.27 270.66 111.27 270.66 129.82 289.2 129.82 289.2 148.36 307.75 148.36 307.75 166.91 326.29 166.91 326.29 185.46 344.84 185.46 344.84 166.91 344.84 148.36 344.84 129.82 344.84 111.27 344.84 92.73 344.84 74.18 344.84 55.64 326.29 55.64"/></g><g id="_outline_2" data-name="&lt;outline&gt;"><polygon class="cls-3" points="307.75 18.55 307.75 0 289.2 0 270.66 0 270.66 18.55 289.2 18.55 307.75 18.55"/><polygon class="cls-3" points="400.48 18.55 400.48 0 381.93 0 363.38 0 363.38 18.55 381.93 18.55 400.48 18.55"/><rect class="cls-3" x="252.11" y="18.55" width="18.55" height="18.55"/><rect class="cls-3" x="307.75" y="18.55" width="18.55" height="18.55"/><rect class="cls-3" x="344.84" y="18.55" width="18.55" height="18.55"/><rect class="cls-3" x="400.48" y="18.55" width="18.55" height="18.55"/><rect class="cls-3" x="326.29" y="37.09" width="18.55" height="18.55"/><polygon class="cls-3" points="419.02 37.09 419.02 55.64 419.02 74.18 419.02 92.73 419.02 111.27 437.57 111.27 437.57 92.73 437.57 74.18 437.57 55.64 437.57 37.09 419.02 37.09"/><polygon class="cls-3" points="252.11 74.18 252.11 55.64 252.11 37.09 233.57 37.09 233.57 55.64 233.57 74.18 233.57 92.73 233.57 111.27 252.11 111.27 252.11 92.73 252.11 74.18"/><rect class="cls-3" x="252.11" y="111.27" width="18.55" height="18.55"/><rect class="cls-3" x="400.48" y="111.27" width="18.55" height="18.55"/><rect class="cls-3" x="270.66" y="129.82" width="18.55" height="18.55"/><rect class="cls-3" x="381.93" y="129.82" width="18.55" height="18.55"/><rect class="cls-3" x="289.2" y="148.36" width="18.55" height="18.55"/><rect class="cls-3" x="363.39" y="148.36" width="18.55" height="18.55"/><rect class="cls-3" x="307.75" y="166.91" width="18.55" height="18.55"/><rect class="cls-3" x="344.84" y="166.91" width="18.55" height="18.55"/><rect class="cls-3" x="326.29" y="185.45" width="18.55" height="18.55"/></g></g><g id="_heart1_2" data-name="&lt;heart1&gt;"><polygon id="_second-half_3" data-name="&lt;second-half&gt;" class="cls-1" points="634.04 37.09 634.04 18.55 615.5 18.55 596.95 18.55 596.95 37.09 578.41 37.09 578.41 55.64 578.41 74.18 578.41 92.73 578.41 111.27 578.41 129.82 578.41 148.36 578.41 166.91 596.95 166.91 596.95 148.36 615.5 148.36 615.5 129.82 634.04 129.82 634.04 111.27 652.59 111.27 652.59 92.73 652.59 74.18 652.59 55.64 652.59 37.09 634.04 37.09"/><g id="_first-half_3" data-name="&lt;first-half&gt;"><polygon class="cls-2" points="504.23 37.09 504.23 55.64 504.23 74.18 522.77 74.18 522.77 55.64 522.77 37.09 504.23 37.09"/><polygon class="cls-1" points="559.86 55.64 559.86 37.09 541.32 37.09 541.32 18.55 522.77 18.55 504.23 18.55 504.23 37.09 522.77 37.09 522.77 55.64 522.77 74.18 504.23 74.18 504.23 55.64 504.23 37.09 485.68 37.09 485.68 55.64 485.68 74.18 485.68 92.73 485.68 111.27 504.23 111.27 504.23 129.82 522.77 129.82 522.77 148.36 541.32 148.36 541.32 166.91 559.86 166.91 559.86 185.46 578.41 185.46 578.41 166.91 578.41 148.36 578.41 129.82 578.41 111.27 578.41 92.73 578.41 74.18 578.41 55.64 559.86 55.64"/></g><g id="_outline_3" data-name="&lt;outline&gt;"><polygon class="cls-3" points="541.32 18.55 541.32 0 522.77 0 504.23 0 504.23 18.55 522.77 18.55 541.32 18.55"/><polygon class="cls-3" points="634.04 18.55 634.04 0 615.5 0 596.95 0 596.95 18.55 615.5 18.55 634.04 18.55"/><rect class="cls-3" x="485.68" y="18.55" width="18.55" height="18.55"/><rect class="cls-3" x="541.32" y="18.55" width="18.55" height="18.55"/><rect class="cls-3" x="578.41" y="18.55" width="18.55" height="18.55"/><rect class="cls-3" x="634.04" y="18.55" width="18.55" height="18.55"/><rect class="cls-3" x="559.86" y="37.09" width="18.55" height="18.55"/><polygon class="cls-3" points="652.59 37.09 652.59 55.64 652.59 74.18 652.59 92.73 652.59 111.27 671.13 111.27 671.13 92.73 671.13 74.18 671.13 55.64 671.13 37.09 652.59 37.09"/><polygon class="cls-3" points="485.68 74.18 485.68 55.64 485.68 37.09 467.13 37.09 467.13 55.64 467.13 74.18 467.13 92.73 467.13 111.27 485.68 111.27 485.68 92.73 485.68 74.18"/><rect class="cls-3" x="485.68" y="111.27" width="18.55" height="18.55"/><rect class="cls-3" x="634.04" y="111.27" width="18.55" height="18.55"/><rect class="cls-3" x="504.22" y="129.82" width="18.55" height="18.55"/><rect class="cls-3" x="615.5" y="129.82" width="18.55" height="18.55"/><rect class="cls-3" x="522.77" y="148.36" width="18.55" height="18.55"/><rect class="cls-3" x="596.95" y="148.36" width="18.55" height="18.55"/><rect class="cls-3" x="541.32" y="166.91" width="18.55" height="18.55"/><rect class="cls-3" x="578.41" y="166.91" width="18.55" height="18.55"/><rect class="cls-3" x="559.86" y="185.45" width="18.55" height="18.55"/></g></g></g></g></g></svg>