<svg xmlns="http://www.w3.org/2000/svg" viewBox="0 0 204 204"><defs><style>.cls-1{fill:#e0040b;}.cls-2{fill:#fff;}.cls-3{fill:#1f140f;}</style></defs><g id="Layer_2" data-name="Layer 2"><g id="Capa_1" data-name="Capa 1"><g id="_heart_" data-name="&lt;heart&gt;"><polygon id="_second-half_" data-name="&lt;second-half&gt;" class="cls-1" points="166.91 37.09 166.91 18.55 148.36 18.55 129.82 18.55 129.82 37.09 111.27 37.09 111.27 55.64 111.27 74.18 111.27 92.73 111.27 111.27 111.27 129.82 111.27 148.36 111.27 166.91 129.82 166.91 129.82 148.36 148.36 148.36 148.36 129.82 166.91 129.82 166.91 111.27 185.46 111.27 185.46 92.73 185.46 74.18 185.46 55.64 185.46 37.09 166.91 37.09"/><g id="_first-half_" data-name="&lt;first-half&gt;"><polygon class="cls-2" points="37.09 37.09 37.09 55.64 37.09 74.18 55.64 74.18 55.64 55.64 55.64 37.09 37.09 37.09"/><polygon class="cls-1" points="92.73 55.64 92.73 37.09 74.18 37.09 74.18 18.55 55.64 18.55 37.09 18.55 37.09 37.09 55.64 37.09 55.64 55.64 55.64 74.18 37.09 74.18 37.09 55.64 37.09 37.09 18.55 37.09 18.55 55.64 18.55 74.18 18.55 92.73 18.55 111.27 37.09 111.27 37.09 129.82 55.64 129.82 55.64 148.36 74.18 148.36 74.18 166.91 92.73 166.91 92.73 185.46 111.27 185.46 111.27 166.91 111.27 148.36 111.27 129.82 111.27 111.27 111.27 92.73 111.27 74.18 111.27 55.64 92.73 55.64"/></g><g id="_outline_" data-name="&lt;outline&gt;"><polygon class="cls-3" points="74.18 18.55 74.18 0 55.64 0 37.09 0 37.09 18.55 55.64 18.55 74.18 18.55"/><polygon class="cls-3" points="166.91 18.55 166.91 0 148.36 0 129.82 0 129.82 18.55 148.36 18.55 166.91 18.55"/><rect class="cls-3" x="18.55" y="18.55" width="18.55" height="18.55"/><rect class="cls-3" x="74.18" y="18.55" width="18.55" height="18.55"/><rect class="cls-3" x="111.27" y="18.55" width="18.55" height="18.55"/><rect class="cls-3" x="166.91" y="18.55" width="18.55" height="18.55"/><rect class="cls-3" x="92.73" y="37.09" width="18.55" height="18.55"/><polygon class="cls-3" points="185.46 37.09 185.46 55.64 185.46 74.18 185.46 92.73 185.46 111.27 204 111.27 204 92.73 204 74.18 204 55.64 204 37.09 185.46 37.09"/><polygon class="cls-3" points="18.55 74.18 18.55 55.64 18.55 37.09 0 37.09 0 55.64 0 74.18 0 92.73 0 111.27 18.55 111.27 18.55 92.73 18.55 74.18"/><rect class="cls-3" x="18.55" y="111.27" width="18.55" height="18.55"/><rect class="cls-3" x="166.91" y="111.27" width="18.55" height="18.55"/><rect class="cls-3" x="37.09" y="129.82" width="18.55" height="18.55"/><rect class="cls-3" x="148.36" y="129.82" width="18.55" height="18.55"/><rect class="cls-3" x="55.64" y="148.36" width="18.55" height="18.55"/><rect class="cls-3" x="129.82" y="148.36" width="18.55" height="18.55"/><rect class="cls-3" x="74.18" y="166.91" width="18.55" height="18.55"/><rect class="cls-3" x="111.27" y="166.91" width="18.55" height="18.55"/><rect class="cls-3" x="92.73" y="185.45" width="18.55" height="18.55"/></g></g></g></g></svg>