<svg xmlns="http://www.w3.org/2000/svg" viewBox="0 0 204 204"><defs><style>.cls-1{fill:#1f140f;}.cls-2{fill:#e0040b;}.cls-3{fill:#fff;}</style></defs><g id="Layer_2" data-name="Layer 2"><g id="Capa_1" data-name="Capa 1"><rect class="cls-1" x="37.09" width="18.55" height="18.55"/><rect class="cls-1" x="55.64" width="18.55" height="18.55"/><rect class="cls-1" x="129.82" width="18.55" height="18.55"/><rect class="cls-1" x="148.36" width="18.55" height="18.55"/><rect class="cls-1" x="18.55" y="18.55" width="18.55" height="18.55"/><rect class="cls-2" x="37.09" y="18.55" width="18.55" height="18.55"/><rect class="cls-2" x="55.64" y="18.55" width="18.55" height="18.55"/><rect class="cls-1" x="74.18" y="18.55" width="18.55" height="18.55"/><rect class="cls-1" x="111.27" y="18.55" width="18.55" height="18.55"/><rect class="cls-2" x="129.82" y="18.55" width="18.55" height="18.55"/><rect class="cls-2" x="148.36" y="18.55" width="18.55" height="18.55"/><rect class="cls-1" x="166.91" y="18.55" width="18.55" height="18.55"/><rect class="cls-1" y="37.09" width="18.55" height="18.55"/><rect class="cls-2" x="18.55" y="37.09" width="18.55" height="18.55"/><rect class="cls-3" x="37.09" y="37.09" width="18.55" height="18.55"/><rect class="cls-2" x="55.64" y="37.09" width="18.55" height="18.55"/><rect class="cls-2" x="74.18" y="37.09" width="18.55" height="18.55"/><rect class="cls-1" x="92.73" y="37.09" width="18.55" height="18.55"/><rect class="cls-2" x="111.27" y="37.09" width="18.55" height="18.55"/><rect class="cls-2" x="129.82" y="37.09" width="18.55" height="18.55"/><rect class="cls-2" x="148.36" y="37.09" width="18.55" height="18.55"/><rect class="cls-2" x="166.91" y="37.09" width="18.55" height="18.55"/><rect class="cls-1" x="185.45" y="37.09" width="18.55" height="18.55"/><rect class="cls-1" y="55.64" width="18.55" height="18.55"/><rect class="cls-2" x="18.55" y="55.64" width="18.55" height="18.55"/><rect class="cls-3" x="37.09" y="55.64" width="18.55" height="18.55"/><rect class="cls-2" x="55.64" y="55.64" width="18.55" height="18.55"/><rect class="cls-2" x="74.18" y="55.64" width="18.55" height="18.55"/><rect class="cls-2" x="92.73" y="55.64" width="18.55" height="18.55"/><rect class="cls-2" x="111.27" y="55.64" width="18.55" height="18.55"/><rect class="cls-2" x="129.82" y="55.64" width="18.55" height="18.55"/><rect class="cls-2" x="148.36" y="55.64" width="18.55" height="18.55"/><rect class="cls-2" x="166.91" y="55.64" width="18.55" height="18.55"/><rect class="cls-1" x="185.45" y="55.64" width="18.55" height="18.55"/><rect class="cls-1" y="74.18" width="18.55" height="18.55"/><rect class="cls-2" x="18.55" y="74.18" width="18.55" height="18.55"/><rect class="cls-2" x="37.09" y="74.18" width="18.55" height="18.55"/><rect class="cls-2" x="55.64" y="74.18" width="18.55" height="18.55"/><rect class="cls-2" x="74.18" y="74.18" width="18.55" height="18.55"/><rect class="cls-2" x="92.73" y="74.18" width="18.55" height="18.55"/><rect class="cls-2" x="111.27" y="74.18" width="18.55" height="18.55"/><rect class="cls-2" x="129.82" y="74.18" width="18.55" height="18.55"/><rect class="cls-2" x="148.36" y="74.18" width="18.55" height="18.55"/><rect class="cls-2" x="166.91" y="74.18" width="18.55" height="18.55"/><rect class="cls-1" x="185.45" y="74.18" width="18.55" height="18.55"/><rect class="cls-1" y="92.73" width="18.55" height="18.55"/><rect class="cls-2" x="18.55" y="92.73" width="18.55" height="18.55"/><rect class="cls-2" x="37.09" y="92.73" width="18.55" height="18.55"/><rect class="cls-2" x="55.64" y="92.73" width="18.55" height="18.55"/><rect class="cls-2" x="74.18" y="92.73" width="18.55" height="18.55"/><rect class="cls-2" x="92.73" y="92.73" width="18.55" height="18.55"/><rect class="cls-2" x="111.27" y="92.73" width="18.55" height="18.55"/><rect class="cls-2" x="129.82" y="92.73" width="18.55" height="18.55"/><rect class="cls-2" x="148.36" y="92.73" width="18.55" height="18.55"/><rect class="cls-2" x="166.91" y="92.73" width="18.55" height="18.55"/><rect class="cls-1" x="185.45" y="92.73" width="18.55" height="18.55"/><rect class="cls-1" x="18.55" y="111.27" width="18.55" height="18.55"/><rect class="cls-2" x="37.09" y="111.27" width="18.55" height="18.55"/><rect class="cls-2" x="55.64" y="111.27" width="18.55" height="18.55"/><rect class="cls-2" x="74.18" y="111.27" width="18.55" height="18.55"/><rect class="cls-2" x="92.73" y="111.27" width="18.55" height="18.55"/><rect class="cls-2" x="111.27" y="111.27" width="18.55" height="18.55"/><rect class="cls-2" x="129.82" y="111.27" width="18.55" height="18.55"/><rect class="cls-2" x="148.36" y="111.27" width="18.55" height="18.55"/><rect class="cls-1" x="166.91" y="111.27" width="18.55" height="18.55"/><rect class="cls-1" x="37.09" y="129.82" width="18.55" height="18.55"/><rect class="cls-2" x="55.64" y="129.82" width="18.55" height="18.55"/><rect class="cls-2" x="74.18" y="129.82" width="18.55" height="18.55"/><rect class="cls-2" x="92.73" y="129.82" width="18.55" height="18.55"/><rect class="cls-2" x="111.27" y="129.82" width="18.55" height="18.55"/><rect class="cls-2" x="129.82" y="129.82" width="18.55" height="18.55"/><rect class="cls-1" x="148.36" y="129.82" width="18.55" height="18.55"/><rect class="cls-1" x="55.64" y="148.36" width="18.55" height="18.55"/><rect class="cls-2" x="74.18" y="148.36" width="18.55" height="18.55"/><rect class="cls-2" x="92.73" y="148.36" width="18.55" height="18.55"/><rect class="cls-2" x="111.27" y="148.36" width="18.55" height="18.55"/><rect class="cls-1" x="129.82" y="148.36" width="18.55" height="18.55"/><rect class="cls-1" x="74.18" y="166.91" width="18.55" height="18.55"/><rect class="cls-2" x="92.73" y="166.91" width="18.55" height="18.55"/><rect class="cls-1" x="111.27" y="166.91" width="18.55" height="18.55"/><rect class="cls-1" x="92.73" y="185.45" width="18.55" height="18.55"/></g></g></svg>